<svg xmlns="http://www.w3.org/2000/svg" viewBox="0 0 800 600" width="100%" height="100%">
  <defs>
    <linearGradient id="bgGrad" x1="0%" y1="0%" x2="100%" y2="100%">
      <stop offset="0%" stop-color="#F5FAFD" />
      <stop offset="100%" stop-color="#EAF5FC" />
    </linearGradient>
  </defs>
  <!-- Border and Background -->
  <rect width="800" height="600" fill="url(#bgGrad)" rx="16" />
  <rect x="10" y="10" width="780" height="580" fill="none" stroke="#D9E7EF" stroke-width="4" stroke-dasharray="10, 10" rx="12" />
  
  <!-- Image Placeholder Graphic -->
  <g transform="translate(400, 260)" text-anchor="middle">
    <!-- Stylized Camera / Photo icon -->
    <path d="M-50,20 L-50,-30 C-50,-35 -45,-40 -40,-40 L-20,-40 L-10,-55 L10,-55 L20,-40 L40,-40 C45,-40 50,-35 50,-30 L50,20 C50,25 45,30 40,30 L-40,30 C-45,30 -50,25 -50,20 Z" fill="#627D98" opacity="0.3" />
    <circle cx="0" cy="-5" r="20" fill="none" stroke="#627D98" stroke-width="6" opacity="0.3" />
    
    <!-- Heartbeat / Pulse overlapping -->
    <path d="M-100,50 L-60,50 L-45,20 L-30,80 L-15,30 L0,55 L15,50 L100,50" fill="none" stroke="#0B8F91" stroke-width="5" stroke-linecap="round" stroke-linejoin="round" opacity="0.5" />
    
    <text y="100" font-family="'Manrope', 'Plus Jakarta Sans', sans-serif" font-size="22" font-weight="700" fill="#102A43">Kify Hospital Image Placeholder</text>
    <text y="125" font-family="'Inter', 'Source Sans 3', sans-serif" font-size="14" fill="#627D98">Connecting to secure medical network...</text>
  </g>
</svg>
